<?xml version="1.0" encoding="UTF-8" standalone="no"?>
<!-- Created with Inkscape (http://www.inkscape.org/) -->

<svg
   version="1.1"
   id="svg9"
   xml:space="preserve"
   width="1440"
   height="1440"
   viewBox="0 0 1440 1440"
   sodipodi:docname="LOGO DOABLY BLANCO.svg"
   inkscape:export-filename="C:\Users\nutri\Desktop\doably blanco.png"
   inkscape:export-xdpi="96"
   inkscape:export-ydpi="96"
   inkscape:version="1.1.2 (b8e25be833, 2022-02-05)"
   xmlns:inkscape="http://www.inkscape.org/namespaces/inkscape"
   xmlns:sodipodi="http://sodipodi.sourceforge.net/DTD/sodipodi-0.dtd"
   xmlns="http://www.w3.org/2000/svg"
   xmlns:svg="http://www.w3.org/2000/svg"><defs
     id="defs13"><inkscape:path-effect
       effect="powerclip"
       id="path-effect4138"
       is_visible="true"
       lpeversion="1"
       inverse="true"
       flatten="false"
       hide_clip="false"
       message="Utilice la regla de relleno parimpar en el diálogo &lt;b&gt;Relleno y borde&lt;/b&gt; si el resultado no está aplanada después de convertir el recorte en trayectos." /><clipPath
       clipPathUnits="userSpaceOnUse"
       id="clipPath23"><path
         d="M 0,1080 H 1080 V 0 H 0 Z"
         id="path21" /></clipPath><clipPath
       clipPathUnits="userSpaceOnUse"
       id="clipPath4134"><path
         d="m 4.7049973,21.598701 c -5.5579951,0 -11.1180002,0.137003 -16.6689983,-0.04297 -4.485,-0.145005 -6.768,1.668 -6.759,6.244995 0.02603,10.788001 0.05497,21.576001 -0.01,32.363004 -0.027,4.324995 1.987995,6.208995 6.264,6.183997 11.6049982,-0.06997 23.209996,-0.03803 34.815999,-0.02003 3.915,0.0067 6.236002,-1.665997 6.179002,-5.796997 -0.05603,-4.067003 -1.956,-6.450001 -6.259005,-6.449003 -0.327,0 -0.661995,0.04703 -0.978997,-0.009 C 18.041,53.494702 13.287995,55.957702 11.769995,52.493699 9.4979975,47.307697 10.019997,41.314702 11.39,35.695702 c 0.462998,-1.901003 2.517998,-1.979003 4.068998,-2.070001 2.1,-0.123 4.227,0.304995 6.339,0.264998 4.701,-0.087 6.843997,-2.204003 6.717,-6.483 -0.129,-4.308998 -2.385,-5.946998 -6.650003,-5.773995 -5.712,0.231997 -11.439,0.057 -17.1600002,0.057 z"
         style="display:none;fill:#000080;fill-opacity:1;fill-rule:nonzero;stroke:none;stroke-width:0.99975;stroke-miterlimit:4;stroke-dasharray:none"
         id="path4136" /><path
         id="lpe_path-effect4138"
         style="fill:#000080;fill-opacity:1;fill-rule:nonzero;stroke:none;stroke-width:0.99975;stroke-miterlimit:4;stroke-dasharray:none"
         class="powerclip"
         d="M -51.452626,-5.0058419 H 61.556629 V 93.127022 H -51.452626 Z M 4.7049973,21.598701 c -5.5579951,0 -11.1180002,0.137003 -16.6689983,-0.04297 -4.485,-0.145005 -6.768,1.668 -6.759,6.244995 0.02603,10.788001 0.05497,21.576001 -0.01,32.363004 -0.027,4.324995 1.987995,6.208995 6.264,6.183997 11.6049982,-0.06997 23.209996,-0.03803 34.815999,-0.02003 3.915,0.0067 6.236002,-1.665997 6.179002,-5.796997 -0.05603,-4.067003 -1.956,-6.450001 -6.259005,-6.449003 -0.327,0 -0.661995,0.04703 -0.978997,-0.009 C 18.041,53.494702 13.287995,55.957702 11.769995,52.493699 9.4979975,47.307697 10.019997,41.314702 11.39,35.695702 c 0.462998,-1.901003 2.517998,-1.979003 4.068998,-2.070001 2.1,-0.123 4.227,0.304995 6.339,0.264998 4.701,-0.087 6.843997,-2.204003 6.717,-6.483 -0.129,-4.308998 -2.385,-5.946998 -6.650003,-5.773995 -5.712,0.231997 -11.439,0.057 -17.1600002,0.057 z" /></clipPath></defs><sodipodi:namedview
     id="namedview11"
     pagecolor="#ffffff"
     bordercolor="#666666"
     borderopacity="1.0"
     inkscape:pageshadow="2"
     inkscape:pageopacity="0"
     inkscape:pagecheckerboard="true"
     showgrid="false"
     inkscape:zoom="0.34444444"
     inkscape:cx="480.48387"
     inkscape:cy="923.22581"
     inkscape:window-width="1366"
     inkscape:window-height="705"
     inkscape:window-x="-8"
     inkscape:window-y="-8"
     inkscape:window-maximized="1"
     inkscape:current-layer="g15" /><g
     id="g15"
     inkscape:groupmode="layer"
     inkscape:label="LOGO DOABLY"
     transform="matrix(1.3333333,0,0,-1.3333333,0,1440)"><g
       id="g25"
       transform="translate(211.2847,612.3232)"
       style="fill:#ffffff"><path
         d="m 0,0 c 10.613,-0.524 23.397,1.102 36.037,-1.325 12.353,-2.372 17.651,-8.434 18.096,-21.126 0.51,-14.531 0.552,-29.074 -0.021,-43.604 -0.486,-12.309 -5.703,-18.084 -17.869,-20.008 -16.39,-2.59 -32.917,-1.631 -49.401,-1.705 -6.86,-0.03 -13.727,0.233 -20.579,0.004 -4.774,-0.158 -6.714,1.841 -7.063,6.499 -1.078,14.402 -0.279,15.428 14.13,15.493 14.053,0.063 28.107,-0.003 42.16,0.02 8.473,0.014 11.091,2.564 11.133,11.131 0.038,7.674 0.096,15.363 -0.308,23.021 -0.413,7.833 -2.424,9.614 -10.365,9.665 -16.177,0.106 -32.355,0.028 -48.533,0.04 -6.568,0.005 -7.14,0.513 -8.063,7.021 -0.138,0.968 -0.192,1.952 -0.236,2.93 -0.5,10.987 0.397,11.934 11.334,11.943 C -20.397,0.006 -11.246,0 0,0"
         style="fill:#ffffff;fill-opacity:1;fill-rule:nonzero;stroke:none"
         id="path27" /></g><g
       id="g29"
       transform="translate(461.502,585.2148)"
       style="fill:#ffffff"><path
         d="m 0,0 c -0.604,1.256 -2.376,1.313 -3.068,0.103 -6.01,-10.515 -12.033,-21.014 -18.01,-31.54 -4.348,-7.658 -8.684,-15.324 -12.91,-23.049 -2.521,-4.607 -6.182,-6.643 -11.587,-6.256 -3.821,0.273 -7.655,0.424 -11.479,0.179 -9.233,-0.589 -11.221,0.324 -7.793,6.438 9.497,16.936 19.084,33.821 28.622,50.734 4.807,8.522 9.674,17.013 14.327,25.618 2.063,3.814 5.196,5.344 9.232,5.129 7.164,0.429 14.164,0.429 21.552,-0.021 4.317,0.199 7.364,-1.388 9.544,-5.365 14.046,-25.625 28.237,-51.171 42.394,-76.736 2.408,-4.348 1.621,-5.85 -3.376,-5.923 -5.88,-0.088 -11.764,0.069 -17.644,-0.049 -5.212,-0.105 -7.889,3.034 -10.15,7.137 C 20.038,-36.148 10.337,-18.742 0.637,-1.336 0.431,-0.964 0.232,-0.482 0,0"
         style="fill:#ffffff;fill-opacity:1;fill-rule:nonzero;stroke:none"
         id="path31" /></g><g
       id="g33"
       transform="translate(767.915,612.3213)"
       style="fill:#ffffff"><path
         d="m 0,0 c 11.085,0.679 19.513,-2.255 27.061,-9.979 4.892,-5.007 10.505,-9.311 15.803,-13.922 4.586,-3.992 6.469,-4.139 11.017,-0.276 6.972,5.921 13.975,11.822 20.647,18.071 4.973,4.658 10.354,6.948 17.268,6.223 4.289,0.562 9.8,-0.052 14.703,-0.143 2.038,-0.038 5.026,0.692 5.75,-1.307 0.734,-2.023 -2.05,-3.448 -3.567,-4.779 -10.195,-8.94 -20.491,-17.766 -30.761,-26.619 -3.836,-3.308 -7.688,-6.597 -11.543,-9.882 -3.055,-2.602 -4.455,-5.847 -4.402,-9.904 0.12,-9.317 0.061,-18.637 0.083,-27.956 0.013,-5.808 -1.365,-7.277 -7.141,-7.332 -4.903,-0.047 -9.809,0.026 -14.713,0.04 -4.218,0.013 -6.31,2.015 -6.159,6.339 0.217,6.199 0.386,12.402 0.475,18.605 0.191,13.427 -5.002,23.904 -16.473,31.386 -11.542,7.529 -20.788,17.863 -31.267,26.704 -0.997,0.841 -2.649,1.992 -1.999,3.579 0.657,1.601 2.539,1.102 3.938,1.128 C -7.521,0.046 -3.76,0 0,0"
         style="fill:#ffffff;fill-opacity:1;fill-rule:nonzero;stroke:none"
         id="path35" /></g><g
       id="g37"
       transform="translate(726.3135,524.666)"
       style="fill:#ffffff"><path
         d="m 0,0 c -11.424,0.014 -22.858,-0.047 -34.204,1.609 -17.635,2.575 -24.997,10.302 -25.476,28.184 -0.458,17.144 -0.051,34.308 -0.138,51.462 -0.022,4.253 1.925,6.498 6.032,6.644 5.05,0.18 10.107,0.38 15.143,-0.545 3.523,-0.648 5.44,-2.527 5.994,-6.075 1.242,-7.961 0.679,-15.969 0.782,-23.96 0.075,-5.875 -0.115,-11.756 0.033,-17.629 0.307,-12.208 5.539,-17.756 17.713,-18.004 12.893,-0.263 25.801,-0.02 38.699,0.156 C 33.963,21.97 35.425,20.561 35.128,11.16 34.791,0.506 37.258,-0.722 23.025,-0.034 19.113,0.155 15.185,-0.001 11.264,0 7.509,0.001 3.755,0 0,0"
         style="fill:#ffffff;fill-opacity:1;fill-rule:nonzero;stroke:none"
         id="path39" /></g><g
       id="g41"
       transform="translate(299.8442,599.1567)"><path
         d="m 0,0 c 9.076,9.073 19.825,14.095 32.864,13.7 1.991,-0.06 2.973,-0.051 3.066,-2.817 0.781,-23.307 19.321,-36.393 41.965,-29.719 2.387,0.703 3.144,0.207 3.707,-2.038 2.636,-10.511 3.15,-20.92 -1.03,-31.192 C 55.244,-54.503 21.321,-43.413 5.917,-15.498 3.217,-10.605 1.265,-5.436 0,0"
         style="fill:#bcd03c;fill-opacity:1;fill-rule:nonzero;stroke:none"
         id="path43" /></g><g
       id="g45"
       transform="translate(299.8442,599.1567)"><path
         d="m 0,0 c 1.836,-0.677 1.988,-2.438 2.503,-3.944 8.832,-25.826 28.268,-39.102 53.688,-45.122 6.787,-1.608 13.737,-2.405 20.763,-2.05 1.275,0.064 2.644,0.241 3.618,-0.95 -2.394,-7.742 -6.672,-14.247 -12.82,-19.523 -24.3,-2.043 -46.07,4.309 -63.696,21.327 -9.675,9.34 -15.822,21.092 -14.542,35.405 C -8.152,-9.085 -4.783,-4.043 0,0"
         style="fill:#aabc37;fill-opacity:1;fill-rule:nonzero;stroke:none"
         id="path47" /></g><g
       id="g49"
       transform="translate(289.3579,584.2998)"><path
         d="m 0,0 c 1.661,-6.208 1.877,-12.686 4.632,-18.729 7.072,-15.517 19.526,-24.845 34.678,-31.161 10.462,-4.36 21.515,-5.916 32.811,-6.022 2.042,-0.019 4.259,0.758 6.117,-0.82 C 61.993,-72.8 35.368,-74.623 16.201,-60.98 -3.216,-47.159 -10.189,-20.913 0,0"
         style="fill:#9aaa2f;fill-opacity:1;fill-rule:nonzero;stroke:none"
         id="path51" /></g><g
       id="g53"
       transform="translate(367.458,624.4546)"><path
         d="m 0,0 c 9.211,-0.086 19.803,-8.727 21.92,-17.726 0.654,-2.777 -0.611,-2.828 -2.564,-2.165 -3.602,1.221 -5.715,0.479 -7.583,-3.373 -3.26,-6.724 -11.381,-9.465 -17.983,-6.944 -7.412,2.831 -11.609,10.32 -10.143,18.095 C -15.02,-5.042 -8.109,0.076 0,0"
         style="fill:#bcd03e;fill-opacity:1;fill-rule:nonzero;stroke:none"
         id="path55" /></g><g
       id="g57"
       transform="translate(696.4365,590.9922)"><path
         d="m 0,0 c 0,-4.529 0.012,-9.059 -0.014,-13.587 -0.003,-0.608 -0.188,-1.214 -0.736,-1.79 V 0.022 Z"
         style="fill:#e6e7ec;fill-opacity:1;fill-rule:nonzero;stroke:none"
         id="path59" /></g><g
       id="g61"
       transform="translate(588.96,524.5029)"
       style="fill:#ffffff"
       clip-path="url(#clipPath4134)"
       inkscape:path-effect="#path-effect4138"><path
         d="m 0,0 c -12.916,0 -25.832,-0.017 -38.747,0.007 -6.196,0.012 -7.673,1.383 -7.682,7.343 -0.032,24.369 -0.031,48.737 0,73.107 0.007,6.049 1.465,7.677 7.51,7.67 26.652,-0.032 53.306,-0.09 79.956,-0.37 8.849,-0.093 12.901,-3.893 14.208,-12.441 1.519,-9.931 2.547,-19.85 -2.964,-29.085 -1.278,-2.143 -0.42,-4.133 0.6,-6.03 C 58.321,30.079 56.755,19.534 54.343,9.138 52.953,3.146 48.132,0.276 40.719,0.202 27.146,0.067 13.573,0.164 0,0.164 Z"
         style="fill:#ffffff;fill-opacity:1;fill-rule:nonzero;stroke:none"
         id="path63"
         inkscape:original-d="m 0,0 c -12.916,0 -25.832,-0.017 -38.747,0.007 -6.196,0.012 -7.673,1.383 -7.682,7.343 -0.032,24.369 -0.031,48.737 0,73.107 0.007,6.049 1.465,7.677 7.51,7.67 26.652,-0.032 53.306,-0.09 79.956,-0.37 8.849,-0.093 12.901,-3.893 14.208,-12.441 1.519,-9.931 2.547,-19.85 -2.964,-29.085 -1.278,-2.143 -0.42,-4.133 0.6,-6.03 C 58.321,30.079 56.755,19.534 54.343,9.138 52.953,3.146 48.132,0.276 40.719,0.202 27.146,0.067 13.573,0.164 0,0.164 Z" /></g><g
       id="g69"
       transform="translate(562.0752,475.8379)"><path
         d="M 0,0 -6.142,14.8 -12.383,0 Z M 2.416,-5.789 H -14.8 l -3.121,-7.45 h -6.997 l 15.454,35.237 h 6.997 L 12.786,-13.239 H 5.537 Z"
         style="fill:#bdd13c;fill-opacity:1;fill-rule:nonzero;stroke:none"
         id="path71" /></g><g
       id="g73"
       transform="translate(604.2607,492.0469)"><path
         d="m 0,0 c -6.645,0 -11.829,-5.135 -11.829,-11.679 0,-6.594 5.184,-11.728 11.829,-11.728 3.373,0 6.947,1.56 9.564,4.127 l 3.978,-4.43 c -3.625,-3.675 -8.81,-6.04 -13.894,-6.04 -10.37,0 -18.374,7.802 -18.374,17.971 0,10.067 8.105,17.769 18.625,17.769 5.035,0 10.169,-2.165 13.592,-5.637 L 9.564,-4.581 C 7.048,-1.762 3.474,0 0,0"
         style="fill:#bdd13c;fill-opacity:1;fill-rule:nonzero;stroke:none"
         id="path75" /></g><g
       id="g77"
       transform="translate(653.6445,475.8379)"><path
         d="M 0,0 -6.142,14.8 -12.383,0 Z M 2.416,-5.789 H -14.8 l -3.121,-7.45 h -6.997 l 15.454,35.237 h 6.997 L 12.786,-13.239 H 5.537 Z"
         style="fill:#bdd13c;fill-opacity:1;fill-rule:nonzero;stroke:none"
         id="path79" /></g><g
       id="g81"
       transform="translate(706.9043,480.167)"><path
         d="m 0,0 c 0,6.896 -4.983,11.729 -11.578,11.729 h -7.803 v -23.357 h 8.055 C -4.833,-11.628 0,-6.847 0,0 m 6.896,0.05 c 0,-10.269 -7.751,-17.618 -18.625,-17.618 h -14.397 v 35.237 h 14.648 C -0.806,17.669 6.896,10.37 6.896,0.05"
         style="fill:#bdd13c;fill-opacity:1;fill-rule:nonzero;stroke:none"
         id="path83" /></g><g
       id="g85"
       transform="translate(755.583,497.8359)"><path
         d="m 0,0 v -5.89 h -19.079 v -8.709 h 17.115 v -5.889 h -17.115 v -8.86 H 0.604 v -5.889 H -25.824 V 0 Z"
         style="fill:#bdd13c;fill-opacity:1;fill-rule:nonzero;stroke:none"
         id="path87" /></g><g
       id="g89"
       transform="translate(780.9043,497.8359)"><path
         d="M 0,0 11.074,-22.603 22.099,0 h 7.752 v -35.237 h -6.142 l -0.05,25.169 -10.42,-21.545 h -4.38 l -10.42,21.545 V -35.237 H -7.803 V 0 Z"
         style="fill:#bdd13c;fill-opacity:1;fill-rule:nonzero;stroke:none"
         id="path91" /></g><g
       id="g93"
       transform="translate(845.0361,474.126)"><path
         d="M 0,0 V -11.527 H -6.745 V -0.251 L -19.884,23.71 h 6.847 L -3.423,7.148 6.041,23.71 h 6.796 z"
         style="fill:#bdd13c;fill-opacity:1;fill-rule:nonzero;stroke:none"
         id="path95" /></g><g
       id="g97"
       transform="translate(920.5254,612.1675)"
       style="fill:#ffffff"><path
         d="m 0,0 c 0.02,6.044 -4.904,10.999 -11.004,11.015 -6.01,0.016 -11.004,-4.817 -11.022,-10.989 -0.018,-6.068 4.879,-11.023 11.011,-11.033 C -4.95,-11.017 -0.021,-6.075 0,0 m -10.086,-15.163 c -0.607,-0.002 -1.206,-0.003 -1.814,-0.004 -0.509,0.063 -1.02,0.109 -1.526,0.194 -3.175,0.531 -5.942,1.897 -8.22,4.172 -3.416,3.414 -4.919,7.562 -4.482,12.366 0.283,3.116 1.469,5.879 3.488,8.243 2.717,3.179 6.627,5.143 10.801,5.403 2.53,0.157 4.969,-0.291 7.242,-1.403 C 0.084,11.519 2.947,7.805 3.954,2.682 4.065,2.114 4.114,1.533 4.19,0.958 4.19,0.342 4.191,-0.267 4.191,-0.882 4.143,-1.283 4.101,-1.684 4.043,-2.083 3.61,-5.078 2.405,-7.723 0.4,-9.988 c -2.354,-2.661 -5.286,-4.32 -8.791,-4.943 -0.56,-0.1 -1.13,-0.156 -1.695,-0.232"
         style="fill:#ffffff;fill-opacity:1;fill-rule:nonzero;stroke:none"
         id="path99" /></g><text
       transform="matrix(1,0,0,-1,903.4746,604.3315)"
       style="font-variant:normal;font-weight:bold;font-stretch:normal;font-size:22.4269px;font-family:'Dolce Vita Heavy';-inkscape-font-specification:DolceVitaHeavy-Bold;writing-mode:lr-tb;fill:#ffffff;fill-opacity:1;fill-rule:nonzero;stroke:none"
       id="text103"><tspan
         x="0"
         y="0"
         id="tspan101"
         style="fill:#ffffff">R</tspan></text></g></svg>
