<?xml version="1.0" encoding="UTF-8" standalone="no"?>
<!-- Generator: Adobe Illustrator 23.0.5, SVG Export Plug-In . SVG Version: 6.00 Build 0)  -->

<svg
   version="1.1"
   id="Doably"
   x="0px"
   y="0px"
   viewBox="0 0 1080 1080"
   style="enable-background:new 0 0 1080 1080;"
   xml:space="preserve"
   sodipodi:docname="LOGO DOABLY.svg"
   inkscape:export-filename="C:\Users\nutri\Desktop\Doably Academy\Logos y mas\feministas.png"
   inkscape:export-xdpi="96"
   inkscape:export-ydpi="96"
   inkscape:version="1.1.2 (b8e25be833, 2022-02-05)"
   xmlns:inkscape="http://www.inkscape.org/namespaces/inkscape"
   xmlns:sodipodi="http://sodipodi.sourceforge.net/DTD/sodipodi-0.dtd"
   xmlns="http://www.w3.org/2000/svg"
   xmlns:svg="http://www.w3.org/2000/svg"><defs
   id="defs54" /><sodipodi:namedview
   id="namedview52"
   pagecolor="#ffffff"
   bordercolor="#666666"
   borderopacity="1.0"
   inkscape:pageshadow="2"
   inkscape:pageopacity="0.0"
   inkscape:pagecheckerboard="true"
   showgrid="false"
   inkscape:zoom="0.47314815"
   inkscape:cx="540"
   inkscape:cy="566.41879"
   inkscape:window-width="1366"
   inkscape:window-height="697"
   inkscape:window-x="-8"
   inkscape:window-y="-8"
   inkscape:window-maximized="1"
   inkscape:current-layer="Doably" />
<style
   type="text/css"
   id="style2">
	.st0{fill:#222A5C;}
	.st1{fill:#BCD03C;}
	.st2{fill:#AABC37;}
	.st3{fill:#9AAA2F;}
	.st4{fill:#BCD03E;}
	.st5{fill:#E6E7EC;}
	.st6{fill:#FEFEFE;}
	.st7{fill:#BDD13C;}
	.st8{fill:#172B5C;}
	.st9{font-family:'DolceVitaHeavy-Bold';}
	.st10{font-size:22.4269px;}
</style>
<g
   id="g26">
	<path
   class="st0"
   d="M211.28,467.68c10.61,0.52,23.4-1.1,36.04,1.32c12.35,2.37,17.65,8.43,18.1,21.13   c0.51,14.53,0.55,29.07-0.02,43.6c-0.49,12.31-5.7,18.08-17.87,20.01c-16.39,2.59-32.92,1.63-49.4,1.71   c-6.86,0.03-13.73-0.23-20.58,0c-4.77,0.16-6.71-1.84-7.06-6.5c-1.08-14.4-0.28-15.43,14.13-15.49c14.05-0.06,28.11,0,42.16-0.02   c8.47-0.01,11.09-2.56,11.13-11.13c0.04-7.67,0.1-15.36-0.31-23.02c-0.41-7.83-2.42-9.61-10.36-9.67   c-16.18-0.11-32.36-0.03-48.53-0.04c-6.57,0-7.14-0.51-8.06-7.02c-0.14-0.97-0.19-1.95-0.24-2.93c-0.5-10.99,0.4-11.93,11.33-11.94   C190.89,467.67,200.04,467.68,211.28,467.68z"
   id="path4" />
	<path
   class="st0"
   d="M461.5,494.79c-0.6-1.26-2.38-1.31-3.07-0.1c-6.01,10.51-12.03,21.01-18.01,31.54   c-4.35,7.66-8.68,15.32-12.91,23.05c-2.52,4.61-6.18,6.64-11.59,6.26c-3.82-0.27-7.66-0.42-11.48-0.18   c-9.23,0.59-11.22-0.32-7.79-6.44c9.5-16.94,19.08-33.82,28.62-50.73c4.81-8.52,9.67-17.01,14.33-25.62   c2.06-3.81,5.2-5.34,9.23-5.13C456,467,463,467,470.39,467.45c4.32-0.2,7.36,1.39,9.54,5.37c14.05,25.63,28.24,51.17,42.39,76.74   c2.41,4.35,1.62,5.85-3.38,5.92c-5.88,0.09-11.76-0.07-17.64,0.05c-5.21,0.1-7.89-3.03-10.15-7.14   c-9.62-17.45-19.32-34.86-29.02-52.26C461.93,495.75,461.73,495.27,461.5,494.79z"
   id="path6" />
	<path
   class="st0"
   d="M767.92,467.68c11.08-0.68,19.51,2.26,27.06,9.98c4.89,5.01,10.51,9.31,15.8,13.92   c4.59,3.99,6.47,4.14,11.02,0.28c6.97-5.92,13.98-11.82,20.65-18.07c4.97-4.66,10.35-6.95,17.27-6.22c4.29-0.56,9.8,0.05,14.7,0.14   c2.04,0.04,5.03-0.69,5.75,1.31c0.73,2.02-2.05,3.45-3.57,4.78c-10.19,8.94-20.49,17.77-30.76,26.62   c-3.84,3.31-7.69,6.6-11.54,9.88c-3.05,2.6-4.46,5.85-4.4,9.9c0.12,9.32,0.06,18.64,0.08,27.96c0.01,5.81-1.36,7.28-7.14,7.33   c-4.9,0.05-9.81-0.03-14.71-0.04c-4.22-0.01-6.31-2.01-6.16-6.34c0.22-6.2,0.39-12.4,0.47-18.6c0.19-13.43-5-23.9-16.47-31.39   c-11.54-7.53-20.79-17.86-31.27-26.7c-1-0.84-2.65-1.99-2-3.58c0.66-1.6,2.54-1.1,3.94-1.13   C760.39,467.63,764.16,467.68,767.92,467.68z"
   id="path8" />
	<path
   class="st0"
   d="M726.31,555.33c-11.42-0.01-22.86,0.05-34.2-1.61c-17.63-2.57-25-10.3-25.48-28.18   c-0.46-17.14-0.05-34.31-0.14-51.46c-0.02-4.25,1.93-6.5,6.03-6.64c5.05-0.18,10.11-0.38,15.14,0.55c3.52,0.65,5.44,2.53,5.99,6.07   c1.24,7.96,0.68,15.97,0.78,23.96c0.08,5.88-0.12,11.76,0.03,17.63c0.31,12.21,5.54,17.76,17.71,18c12.89,0.26,25.8,0.02,38.7-0.16   c9.38-0.13,10.85,1.28,10.55,10.68c-0.34,10.65,2.13,11.88-12.1,11.19c-3.91-0.19-7.84-0.03-11.76-0.03   C733.82,555.33,730.07,555.33,726.31,555.33z"
   id="path10" />
	<path
   class="st1"
   d="M299.84,480.84c9.08-9.07,19.83-14.1,32.86-13.7c1.99,0.06,2.97,0.05,3.07,2.82   c0.78,23.31,19.32,36.39,41.96,29.72c2.39-0.7,3.14-0.21,3.71,2.04c2.64,10.51,3.15,20.92-1.03,31.19   c-25.33,2.44-59.25-8.65-74.66-36.57C303.06,491.45,301.11,486.28,299.84,480.84z"
   id="path12" />
	<path
   class="st2"
   d="M299.84,480.84c1.84,0.68,1.99,2.44,2.5,3.94c8.83,25.83,28.27,39.1,53.69,45.12   c6.79,1.61,13.74,2.4,20.76,2.05c1.28-0.06,2.64-0.24,3.62,0.95c-2.39,7.74-6.67,14.25-12.82,19.52   c-24.3,2.04-46.07-4.31-63.7-21.33c-9.67-9.34-15.82-21.09-14.54-35.41C291.69,489.93,295.06,484.89,299.84,480.84z"
   id="path14" />
	<path
   class="st3"
   d="M289.36,495.7c1.66,6.21,1.88,12.69,4.63,18.73c7.07,15.52,19.53,24.84,34.68,31.16   c10.46,4.36,21.52,5.92,32.81,6.02c2.04,0.02,4.26-0.76,6.12,0.82c-16.25,16.07-42.87,17.89-62.04,4.25   C286.14,542.86,279.17,516.61,289.36,495.7z"
   id="path16" />
	<path
   class="st4"
   d="M367.46,455.55c9.21,0.09,19.8,8.73,21.92,17.73c0.65,2.78-0.61,2.83-2.56,2.17c-3.6-1.22-5.71-0.48-7.58,3.37   c-3.26,6.72-11.38,9.47-17.98,6.94c-7.41-2.83-11.61-10.32-10.14-18.09C352.44,460.59,359.35,455.47,367.46,455.55z"
   id="path18" />
	<path
   class="st5"
   d="M696.44,489.01c0,4.53,0.01,9.06-0.01,13.59c0,0.61-0.19,1.21-0.74,1.79c0-5.13,0-10.27,0-15.4   C695.94,488.99,696.19,489,696.44,489.01z"
   id="path20" />
	<path
   class="st0"
   d="M588.96,555.5c-12.92,0-25.83,0.02-38.75-0.01c-6.2-0.01-7.67-1.38-7.68-7.34c-0.03-24.37-0.03-48.74,0-73.11   c0.01-6.05,1.46-7.68,7.51-7.67c26.65,0.03,53.31,0.09,79.96,0.37c8.85,0.09,12.9,3.89,14.21,12.44   c1.52,9.93,2.55,19.85-2.96,29.09c-1.28,2.14-0.42,4.13,0.6,6.03c5.44,10.12,3.87,20.67,1.46,31.06   c-1.39,5.99-6.21,8.86-13.62,8.94c-13.57,0.13-27.15,0.04-40.72,0.04V555.5z"
   id="path22" />
	<path
   class="st6"
   d="M593.67,533.9c-5.56,0-11.12-0.14-16.67,0.04c-4.49,0.15-6.77-1.67-6.76-6.24   c0.03-10.79,0.05-21.58-0.01-32.36c-0.03-4.32,1.99-6.21,6.26-6.18c11.6,0.07,23.21,0.04,34.82,0.02c3.92-0.01,6.24,1.67,6.18,5.8   c-0.06,4.07-1.96,6.45-6.26,6.45c-0.33,0-0.66-0.05-0.98,0.01c-3.25,0.58-8-1.89-9.52,1.58c-2.27,5.19-1.75,11.18-0.38,16.8   c0.46,1.9,2.52,1.98,4.07,2.07c2.1,0.12,4.23-0.3,6.34-0.26c4.7,0.09,6.84,2.2,6.72,6.48c-0.13,4.31-2.38,5.95-6.65,5.77   c-5.71-0.23-11.44-0.06-17.16-0.06V533.9z"
   id="path24" />
</g>
<g
   id="Academy">
	<g
   id="g42">
		<path
   class="st7"
   d="M564.49,609.95h-17.22l-3.12,7.45h-7l15.45-35.24h7l15.25,35.24h-7.25L564.49,609.95z M562.08,604.16    l-6.14-14.8l-6.24,14.8H562.08z"
   id="path28" />
		<path
   class="st7"
   d="M604.26,587.95c-6.64,0-11.83,5.13-11.83,11.68c0,6.59,5.18,11.73,11.83,11.73c3.37,0,6.95-1.56,9.56-4.13    l3.98,4.43c-3.63,3.67-8.81,6.04-13.89,6.04c-10.37,0-18.37-7.8-18.37-17.97c0-10.07,8.1-17.77,18.63-17.77    c5.03,0,10.17,2.17,13.59,5.64l-3.93,4.93C611.31,589.71,607.73,587.95,604.26,587.95z"
   id="path30" />
		<path
   class="st7"
   d="M656.06,609.95h-17.22l-3.12,7.45h-7l15.45-35.24h7l15.25,35.24h-7.25L656.06,609.95z M653.64,604.16    l-6.14-14.8l-6.24,14.8H653.64z"
   id="path32" />
		<path
   class="st7"
   d="M713.8,599.78c0,10.27-7.75,17.62-18.63,17.62h-14.4v-35.24h14.65C706.1,582.16,713.8,589.46,713.8,599.78z     M706.9,599.83c0-6.9-4.98-11.73-11.58-11.73h-7.8v23.36h8.05C702.07,611.46,706.9,606.68,706.9,599.83z"
   id="path34" />
		<path
   class="st7"
   d="M755.58,582.16v5.89H736.5v8.71h17.12v5.89H736.5v8.86h19.68v5.89h-26.43v-35.24H755.58z"
   id="path36" />
		<path
   class="st7"
   d="M780.9,582.16l11.07,22.6l11.02-22.6h7.75v35.24h-6.14l-0.05-25.17l-10.42,21.54h-4.38l-10.42-21.54v25.17    h-6.24v-35.24H780.9z"
   id="path38" />
		<path
   class="st7"
   d="M845.04,605.87v11.53h-6.75v-11.28l-13.14-23.96H832l9.61,16.56l9.46-16.56h6.8L845.04,605.87z"
   id="path40" />
	</g>
</g>
<g
   id="g49">
	<path
   class="st8"
   d="M910.44,483c-0.61,0-1.21,0-1.81,0c-0.51-0.06-1.02-0.11-1.53-0.19c-3.18-0.53-5.94-1.9-8.22-4.17   c-3.42-3.41-4.92-7.56-4.48-12.37c0.28-3.12,1.47-5.88,3.49-8.24c2.72-3.18,6.63-5.14,10.8-5.4c2.53-0.16,4.97,0.29,7.24,1.4   c4.68,2.29,7.54,6,8.55,11.13c0.11,0.57,0.16,1.15,0.24,1.72c0,0.62,0,1.22,0,1.84c-0.05,0.4-0.09,0.8-0.15,1.2   c-0.43,2.99-1.64,5.64-3.64,7.91c-2.35,2.66-5.29,4.32-8.79,4.94C911.57,482.86,911.01,482.92,910.44,483z M920.52,467.83   c0.02-6.04-4.9-11-11-11.02c-6.01-0.02-11,4.82-11.02,10.99c-0.02,6.07,4.88,11.02,11.01,11.03   C915.58,478.85,920.51,473.91,920.52,467.83z"
   id="path45" />
	<text
   transform="matrix(1 0 0 1 903.4746 475.6685)"
   class="st8 st9 st10"
   id="text47">R</text>
</g>
</svg>
